# xmcd
#
# Track frame offsets:
#	150
#	978
#	18963
#	36828
#	55163
#	73630
#	91595
#	92613
#	93635
#	94498
#	109518
#	128845
#	146518
#	161253
#	179413
#	197088
#	212013
#	213035
#	214058
#	214890
#	227193
#	240858
#	254960
#	267933
#	281533
#	296773
#
# Disc length: 4143
#
# Revision: 3
# Processed by: cddbd v1.5.1PL0 Copyright (c) Steve Scherf et al.
# Submitted via: VisiTrax 2.9.5.181 - For more info visit www.synapsa.com
# Normalized: r2:DSETVAR1
#
DISCID=74102d1a
DTITLE=Various Artist - Top Hits USA T224
DYEAR=1994
DGENRE=
TTITLE0=Various Artist - N/A
TTITLE1=Baha Men - Dancing In The Moonlight
TTITLE2=Lowen and Navarro - Just To See You
TTITLE3=Barbra Streisand - Ordinary Miracles
TTITLE4=Norman Brown - That's The Way Love Goes
TTITLE5=Mitch Malloy - How 'Bout Us
TTITLE6=Various Artist - N/A
TTITLE7=Various Artist - N/A
TTITLE8=Various Artist - N/A
TTITLE9=Eternal - Just A Step From Heaven
TTITLE10=Traffic - Here Comes A Man
TTITLE11=Shai - The Place Where You Belong
TTITLE12=James - Say Something
TTITLE13=Boston - I Need Your Love
TTITLE14=For Real - You Don't Wanna Miss
TTITLE15=Pretenders - Night In My Veins
TTITLE16=Various Artist - N/A
TTITLE17=Various Artist - N/A
TTITLE18=Various Artist - N/A
TTITLE19=Tracy Lawrence - Renegades Rebels And Rogues
TTITLE20=Dwight Yoakam - Pocket Of A Clown
TTITLE21=Clint Black - Half The Man
TTITLE22=Linda Davis - Love Didn't Do It
TTITLE23=Marty Brown - Cryin' Lovin' Leavin'
TTITLE24=Rick Trevino - She Can't Say I Didn't Cry
TTITLE25=Dennis Robbins - Travelin' Music
EXTD=
EXTT0=
EXTT1=
EXTT2=
EXTT3=
EXTT4=
EXTT5=
EXTT6=
EXTT7=
EXTT8=
EXTT9=
EXTT10=
EXTT11=
EXTT12=
EXTT13=
EXTT14=
EXTT15=
EXTT16=
EXTT17=
EXTT18=
EXTT19=
EXTT20=
EXTT21=
EXTT22=
EXTT23=
EXTT24=
EXTT25=
PLAYORDER=
